<?xml version="1.0" standalone="no"?>
<!DOCTYPE svg PUBLIC "-//W3C//DTD SVG 20010904//EN"
 "http://www.w3.org/TR/2001/REC-SVG-20010904/DTD/svg10.dtd">
<svg version="1.0" xmlns="http://www.w3.org/2000/svg"
 width="1000.000000pt" height="1000.000000pt" viewBox="0 0 1000.000000 1000.000000"
 preserveAspectRatio="xMidYMid meet">
<metadata>
Created by potrace 1.11, written by Peter Selinger 2001-2013
</metadata>
<g transform="translate(0.000000,1000.000000) scale(0.100000,-0.100000)"
fill="#000000" stroke="none">
<path d="M4700 8524 c-19 -2 -84 -9 -145 -15 -648 -65 -1271 -323 -1805 -748
-122 -97 -414 -389 -511 -511 -427 -535 -666 -1112 -751 -1810 -19 -156 -16
-611 6 -775 90 -691 356 -1296 799 -1823 91 -107 442 -458 549 -549 527 -444
1130 -708 1823 -800 183 -24 639 -24 820 0 677 90 1241 328 1765 746 130 103
417 392 523 526 80 101 201 275 256 368 l23 37 -488 0 -487 0 -146 -142 c-434
-423 -934 -664 -1551 -749 -124 -17 -516 -17 -640 0 -501 69 -922 241 -1313
538 -128 97 -500 466 -597 593 -306 400 -482 824 -551 1330 -17 126 -18 517 0
640 70 503 235 909 535 1310 91 122 374 405 496 496 401 299 810 466 1310 535
124 17 516 17 640 0 500 -69 927 -243 1312 -538 57 -43 166 -140 244 -215
l141 -138 497 0 497 0 -18 30 c-27 46 -148 205 -227 299 -91 109 -437 455
-547 547 -529 445 -1129 709 -1820 800 -108 14 -563 27 -639 18z"/>
<path d="M4880 6808 c-531 -87 -971 -376 -1269 -833 -49 -75 -155 -293 -171
-350 -7 -28 -17 -55 -21 -61 -8 -10 -47 -165 -54 -214 -2 -14 -4 -25 -5 -25
-4 0 -10 -49 -21 -155 -26 -257 9 -535 100 -790 40 -112 158 -350 173 -350 4
0 8 -6 8 -12 0 -24 134 -194 234 -297 152 -155 293 -258 496 -361 79 -40 231
-101 290 -115 193 -49 265 -61 418 -71 l102 -7 0 1832 0 1833 -87 -4 c-49 -2
-135 -11 -193 -20z"/>
</g>
</svg>
